<svg xmlns="http://www.w3.org/2000/svg" xmlns:xlink="http://www.w3.org/1999/xlink" version="1.1" enable-background="new 0 0 5 5" xml:space="preserve" width="5" height="5"><rect id="backgroundrect" width="100%" height="100%" x="0" y="0" fill="none" stroke="none"/><g class="currentLayer"><title>Layer 1</title><g id="svg_1" class="" fill="#ffffff" fill-opacity="1"><g id="svg_2" fill="#ffffff" fill-opacity="1"><path d="M2.051,2.494C2.011,2.466,1.934,2.381,1.97,2.328c0.027-0.04,0.022-0.076,0.01-0.119c-0.001-0.006-0.01-0.008-0.013-0.001    C1.94,2.273,1.893,2.297,1.919,2.372c0.019,0.054,0.071,0.114,0.122,0.141C2.053,2.519,2.062,2.502,2.051,2.494z" id="svg_3" fill="#ffffff" fill-opacity="1"/><path d="M2.492,2.362C2.487,2.359,2.483,2.359,2.478,2.36C2.471,2.362,2.465,2.368,2.464,2.375    C2.459,2.393,2.448,2.407,2.437,2.422C2.424,2.438,2.416,2.458,2.404,2.477C2.4,2.482,2.409,2.488,2.415,2.483    c0.031-0.028,0.076-0.055,0.086-0.1C2.503,2.376,2.5,2.365,2.492,2.362z" id="svg_4" fill="#ffffff" fill-opacity="1"/><path d="M4.174,2.701c-0.11-0.06-0.216-0.176-0.333-0.255C3.907,2.39,3.863,2.252,3.859,2.184c0-0.012-0.007-0.018-0.018-0.022    C3.8,2.145,3.752,2.141,3.708,2.126C3.674,2.114,3.648,2.103,3.615,2.104C3.631,2.027,3.644,1.95,3.66,1.878    c0.002-0.012-0.009-0.025-0.021-0.021C3.62,1.864,3.592,1.859,3.56,1.852l0,0c0.004-0.058-0.003-0.201-0.052-0.24    C3.452,1.569,3.366,1.561,3.3,1.537C3.171,1.491,2.957,1.485,2.854,1.594C2.829,1.551,2.805,1.491,2.76,1.473    C2.752,1.471,2.743,1.474,2.738,1.479C2.713,1.501,2.687,1.519,2.659,1.536c0.05-0.129-0.064-0.297-0.13-0.395    C2.523,1.134,2.512,1.128,2.501,1.131C2.377,1.18,2.161,1.296,2.089,1.448c-0.074-0.13-0.321-0.19-0.439-0.182    c-0.065,0.005-0.109,0.16-0.126,0.212C1.503,1.542,1.475,1.656,1.511,1.727C1.34,1.74,1.148,1.921,1.013,1.987    C1.004,1.991,1,2.003,1.003,2.012c0.06,0.148,0.114,0.262,0.203,0.376C1.004,2.387,0.958,2.762,0.832,2.851    C0.809,2.867,0.815,2.896,0.84,2.906c0.114,0.044,0.246,0.15,0.381,0.217C1.053,3.262,1.215,3.479,1.193,3.648    C1.191,3.665,1.2,3.684,1.219,3.683C1.423,3.667,1.718,3.82,1.907,3.685c0.025,0.029,0.051,0.063,0.085,0.074    c0.01,0.002,0.021,0,0.027-0.007c0.093-0.104,0.296-0.14,0.461-0.205c0.033,0.209,0.275,0.257,0.445,0.32    c0.01,0.005,0.026-0.002,0.031-0.013c0.065-0.152,0.304-0.167,0.4-0.305c0.043-0.062,0.045-0.175,0.007-0.246    C3.41,3.276,3.453,3.249,3.491,3.226C3.468,3.238,3.676,3.193,3.692,3.165c0.023-0.042,0.019-0.096,0.01-0.146    C3.768,3.04,3.855,3.014,3.913,2.986C4.028,2.931,4.115,2.832,4.18,2.725C4.186,2.716,4.182,2.704,4.174,2.701z M3.719,2.18    C3.75,2.191,3.783,2.195,3.814,2.202c0.009,0.073,0.039,0.162-0.003,0.226C3.725,2.375,3.633,2.346,3.528,2.372    C3.566,2.299,3.59,2.217,3.609,2.134C3.646,2.146,3.681,2.166,3.719,2.18z M3.624,1.898C3.604,1.899,3.602,1.94,3.597,1.978    C3.582,2.069,3.553,2.164,3.514,2.249C3.462,2.362,3.428,2.483,3.3,2.532C3.207,2.57,3.06,2.594,2.982,2.509    c0.026-0.007,0.042-0.044,0.051-0.067C3.054,2.387,3.06,2.315,3.093,2.267c0.006-0.01-0.008-0.02-0.017-0.012    c-0.038,0.034-0.06,0.069-0.081,0.117C2.994,2.376,2.993,2.38,2.992,2.383c0.005-0.053,0-0.109-0.01-0.151    C2.975,2.199,2.953,2.14,2.922,2.098c0.01-0.017,0.02-0.031,0.029-0.047c0.006-0.008,0.011-0.016,0.015-0.024    c0.068-0.11,0.14-0.211,0.293-0.208C3.386,1.822,3.496,1.901,3.624,1.898z M2.461,2.275c-0.01-0.001-0.02-0.002-0.03-0.003    C2.363,2.267,2.301,2.291,2.238,2.297c0.03-0.033,0.057-0.082,0.071-0.101C2.324,2.175,2.344,2.155,2.36,2.135    c0.015-0.016,0.024-0.061,0.055-0.049C2.479,2.108,2.472,2.223,2.461,2.275L2.461,2.275z M2.286,2.354    C2.355,2.341,2.414,2.31,2.488,2.32c0.055,0.008,0.103,0.025,0.159,0.03c0.005,0,0.007-0.009,0.002-0.011    C2.595,2.315,2.54,2.292,2.481,2.279c0.041-0.063,0.03-0.198-0.049-0.23C2.444,2.041,2.457,2.032,2.47,2.027    c0.051-0.021,0.114-0.021,0.145,0.028c0.042,0.069,0.068,0.148,0.074,0.228c0.001,0.012,0.02,0.021,0.024,0.006    c0.016-0.033,0.013-0.066,0.003-0.1c0.023-0.04,0.092-0.152,0.125-0.105C2.87,2.122,2.868,2.179,2.861,2.222    C2.852,2.276,2.823,2.333,2.798,2.381c-0.021,0.043-0.026,0.096-0.05,0.138C2.692,2.53,2.639,2.547,2.599,2.556    C2.522,2.572,2.387,2.609,2.301,2.674c-0.016-0.053-0.045-0.1-0.073-0.148c-0.04-0.067-0.068-0.128-0.088-0.203    C2.178,2.357,2.226,2.366,2.286,2.354z M2.864,2.341C2.882,2.277,2.895,2.22,2.896,2.157C2.91,2.186,2.92,2.216,2.927,2.246    c0.021,0.086,0.024,0.179-0.018,0.259v0.001C2.871,2.499,2.828,2.502,2.785,2.511C2.823,2.46,2.849,2.393,2.864,2.341z     M3.519,1.839C3.455,1.815,3.385,1.782,3.345,1.771c-0.072-0.022-0.16-0.009-0.232,0.01c-0.052,0.014-0.096,0.065-0.13,0.125    C2.98,1.873,2.974,1.842,2.968,1.815C2.952,1.742,2.914,1.68,2.871,1.619C3.097,1.53,3.491,1.543,3.519,1.839z M2.68,1.575    c0.024-0.011,0.045-0.026,0.066-0.041C2.772,1.516,2.76,1.532,2.775,1.566c0.037,0.081,0.104,0.14,0.136,0.228    c0.028,0.079,0.036,0.194-0.007,0.272C2.902,2.071,2.903,2.074,2.905,2.078c-0.009-0.01-0.018-0.018-0.028-0.022    C2.866,2.037,2.849,2.021,2.826,2.03C2.757,2.053,2.731,2.109,2.71,2.17c0-0.001,0-0.002-0.001-0.004    C2.691,2.118,2.665,2.041,2.627,2.003c-0.03-0.031-0.067-0.03-0.108-0.023C2.49,1.984,2.467,1.994,2.441,2.009    C2.425,2.018,2.416,2.03,2.404,2.042c-0.047-0.003-0.06,0.045-0.089,0.077C2.291,2.146,2.268,2.174,2.249,2.203    C2.231,2.229,2.205,2.277,2.174,2.295C2.159,2.293,2.144,2.288,2.128,2.281c-0.003-0.011-0.006-0.021-0.009-0.03    c0-0.066-0.016-0.132,0.021-0.204c0.047-0.094,0.121-0.17,0.17-0.261c0.018-0.032,0.017-0.039,0.023-0.075    c0.002-0.013,0.09,0.022,0.093,0.023c0.156,0.052,0.208,0.13,0.257,0.278c0.006,0.018,0.028,0.012,0.03-0.005    c0.012-0.102-0.046-0.195-0.125-0.255C2.565,1.735,2.526,1.717,2.484,1.7C2.542,1.649,2.607,1.605,2.68,1.575z M2.248,1.346    c0.069-0.064,0.166-0.12,0.252-0.16c0.083,0.11,0.136,0.226,0.13,0.366C2.563,1.591,2.495,1.626,2.444,1.688    C2.397,1.676,2.351,1.67,2.32,1.677C2.303,1.681,2.272,1.781,2.279,1.769C2.275,1.775,2.271,1.783,2.265,1.79    C2.269,1.717,2.22,1.64,2.161,1.599C2.141,1.585,2.12,1.574,2.098,1.566C2.138,1.483,2.178,1.409,2.248,1.346z M2.231,1.835    L2.231,1.835C2.201,1.873,2.164,1.91,2.137,1.949C2.081,2.03,2.077,2.097,2.083,2.17c-0.021-0.036-0.05-0.067-0.092-0.098    C1.984,2.067,1.977,2.079,1.982,2.084C2.086,2.17,2.065,2.28,2.099,2.398c0.033,0.116,0.146,0.174,0.187,0.287    C2.264,2.704,2.245,2.727,2.233,2.75c-0.2-0.044-0.353-0.154-0.382-0.372C1.837,2.279,1.889,2.21,1.939,2.133    c0.019-0.029,0.014-0.037,0.003-0.065c-0.002-0.006-0.01-0.006-0.012,0C1.902,2.146,1.84,2.201,1.816,2.281    C1.787,2.17,1.748,2.063,1.766,1.947c0.013-0.081,0.062-0.151,0.077-0.23c0.01-0.049-0.001-0.112-0.017-0.162    c0.033,0.023,0.087,0.023,0.123,0.033C2.073,1.622,2.242,1.67,2.231,1.835z M1.141,2.178c-0.021-0.051-0.036-0.1-0.067-0.146    c-0.035-0.051,0.01-0.028,0.058-0.057C1.304,1.87,1.495,1.675,1.699,1.843c0.01,0.009,0.027-0.003,0.019-0.015    c-0.048-0.064-0.102-0.094-0.16-0.101C1.533,1.67,1.551,1.587,1.565,1.531c0.007-0.027,0.061-0.218,0.117-0.206    C1.83,1.355,1.99,1.373,2.069,1.511C2.066,1.525,2.065,1.542,2.065,1.557C1.984,1.536,1.894,1.543,1.813,1.527    c-0.002-0.001-0.004,0-0.005,0.001C1.805,1.53,1.803,1.532,1.803,1.537c0.021,0.17-0.098,0.287-0.106,0.448    C1.69,2.114,1.742,2.217,1.79,2.328C1.788,2.327,1.786,2.324,1.785,2.322c-0.023-0.027-0.044-0.052-0.07-0.075    c-0.035-0.03-0.081-0.042-0.122-0.06C1.585,2.185,1.579,2.195,1.586,2.198c0.067,0.037,0.105,0.078,0.139,0.146    c0.016,0.03,0.04,0.056,0.057,0.086c0.016,0.03,0.03,0.06,0.049,0.088C1.833,2.519,1.833,2.519,1.834,2.52    C1.837,2.528,1.84,2.537,1.843,2.546c0.011,0.028,0.025,0.056,0.043,0.08C1.81,2.584,1.715,2.555,1.635,2.552    C1.421,2.541,1.222,2.382,1.141,2.178z M0.906,2.871c0.04-0.038,0.065-0.089,0.089-0.139C1.058,2.6,1.12,2.512,1.239,2.43    C1.254,2.447,1.27,2.466,1.288,2.484c0.078,0.083,0.167,0.111,0.261,0.123c-0.12,0.115-0.037,0.262-0.054,0.404    C1.487,3.076,1.51,3.099,1.551,3.112C1.303,3.153,1.116,2.976,0.906,2.871z M1.549,3.654C1.451,3.633,1.349,3.618,1.247,3.627    c0.007-0.172-0.094-0.318-0.002-0.493c0.12,0.056,0.244,0.076,0.36-0.008C1.63,3.132,1.658,3.138,1.688,3.148    c0.009,0.004,0.019,0.007,0.028,0.011c0,0.002,0,0.003,0,0.006C1.675,3.262,1.683,3.363,1.73,3.461    C1.765,3.533,1.806,3.587,1.86,3.64C1.753,3.661,1.67,3.681,1.549,3.654z M2.073,3.634C2.039,3.649,2.013,3.679,1.988,3.705    c0.024-0.024-0.035-0.062-0.06-0.088C1.799,3.484,1.735,3.362,1.767,3.174C1.899,3.208,2.053,3.21,2.17,3.141    c0.052-0.03,0.134-0.092,0.159-0.157C2.33,3.013,2.321,3.045,2.312,3.072c-0.01,0.034-0.03,0.064-0.05,0.094    c-0.021,0.031-0.04,0.071-0.064,0.1C2.192,3.271,2.201,3.28,2.208,3.274c0.029-0.027,0.052-0.061,0.083-0.087    c0.037-0.033,0.063-0.065,0.086-0.109C2.39,3.052,2.406,3.01,2.402,2.976C2.471,3,2.551,3.004,2.621,2.998    C2.628,3.061,2.65,3.132,2.685,3.199C2.648,3.509,2.307,3.526,2.073,3.634z M3.195,3.619c-0.077,0.052-0.162,0.082-0.236,0.14    c-0.144,0.11-0.367-0.078-0.435-0.23C2.64,3.477,2.728,3.403,2.729,3.271c0.046,0.064,0.106,0.116,0.174,0.143    c0.132,0.047,0.285-0.012,0.418-0.086C3.341,3.451,3.315,3.54,3.195,3.619z M3.648,3.134C3.597,3.13,3.543,3.131,3.494,3.152    C3.355,3.214,3.238,3.297,3.088,3.334c-0.24,0.062-0.33-0.17-0.416-0.346c0.095-0.024,0.164-0.092,0.226-0.166    c0.012,0.01,0.028,0.017,0.042,0.021C2.962,2.85,2.991,2.859,3.011,2.841c0.005-0.004,0.001-0.013-0.006-0.013    S2.989,2.815,2.983,2.812C2.977,2.806,2.97,2.802,2.963,2.797s-0.016-0.01-0.023-0.016C2.938,2.78,2.937,2.778,2.935,2.777    c0.03-0.037,0.06-0.074,0.091-0.106c0.016-0.017-0.004-0.038-0.022-0.029c-0.093,0.043-0.147,0.146-0.22,0.216    c-0.127,0.122-0.397,0.12-0.506-0.029C2.269,2.816,2.246,2.823,2.252,2.839c0.01,0.024,0.023,0.046,0.038,0.063    C2.265,3.052,2.114,3.111,1.982,3.131C1.845,3.149,1.738,3.1,1.61,3.064C1.521,3.04,1.561,3.051,1.56,2.97    c-0.002-0.133-0.085-0.228,0.007-0.36l0,0c0.117,0.012,0.24,0.008,0.356,0.059C2,2.743,2.116,2.784,2.225,2.778    c0,0.008,0.01,0.012,0.017,0.006C2.317,2.72,2.451,2.691,2.54,2.653c0.114-0.05,0.318-0.112,0.435-0.058    c0.007,0.002,0.014,0.002,0.02,0c0.048,0.023,0.078,0.019,0.134,0.019c0.088,0,0.203-0.021,0.272-0.079    C3.408,2.53,3.414,2.524,3.42,2.519c0.001,0,0.002,0.001,0.003,0.002c0.116,0.07,0.143,0.252,0.184,0.371    C3.615,2.916,3.695,3.137,3.648,3.134z M4.04,2.84C3.964,2.925,3.812,3.01,3.693,2.972c0-0.003-0.001-0.008-0.002-0.012    C3.666,2.815,3.602,2.554,3.457,2.481c0.021-0.024,0.04-0.052,0.056-0.08c0.092,0.015,0.188,0.044,0.271,0.083    c0.104,0.048,0.18,0.14,0.271,0.207c0.02,0.015,0.05,0.045,0.078,0.043C4.116,2.734,4.054,2.825,4.04,2.84z" id="svg_5" fill="#ffffff" fill-opacity="1"/><path d="M2.029,2.94C1.963,2.958,1.905,2.982,1.835,2.974C1.782,2.965,1.734,2.963,1.68,2.968c-0.007,0-0.007,0.009,0,0.009    c0.047,0.001,0.082,0.028,0.122,0.045c0.03,0.012,0.058,0.014,0.09,0.014c0.055,0.001,0.122-0.017,0.156-0.061    C2.06,2.958,2.049,2.935,2.029,2.94z" id="svg_6" fill="#ffffff" fill-opacity="1"/></g></g></g></svg>